<svg xmlns="http://www.w3.org/2000/svg" xmlns:xlink="http://www.w3.org/1999/xlink" viewBox="0 0 640 480"><defs><linearGradient id="l" x1=".835" x2=".439" y1=".114" y2=".114" gradientTransform="translate(0 73.469)" xlink:href="#a"/><linearGradient id="n" x1=".426" x2=".769" y1=".307" y2=".307" gradientTransform="translate(0 21.107)" xlink:href="#b"/><linearGradient id="p" y1=".462" y2=".462"><stop stop-color="#cfe96d" offset="0"/><stop stop-color="#dfff57" offset="1"/></linearGradient><linearGradient id="c"><stop stop-color="#f7ff70" offset="0"/><stop stop-color="#ffe900" offset="1"/></linearGradient><linearGradient id="b"><stop stop-color="#398c24" offset="0"/><stop stop-color="#63c44b" offset="1"/></linearGradient><linearGradient id="o" x1=".223" x2=".511" y1=".976" y2=".976" xlink:href="#b"/><linearGradient id="j" x1=".486" x2=".444" y1=".009" y2=".009" gradientTransform="translate(0 73.469)"><stop stop-color="#ffdc10" offset="0"/><stop stop-color="#f4b908" offset=".395"/><stop stop-color="#eea704" offset=".75"/><stop stop-color="#c68000" offset="1"/></linearGradient><linearGradient id="f" x1=".865" x2=".801" y1=".217" y2=".217" gradientTransform="translate(0 21.107)"><stop stop-color="#ffe627" offset="0"/><stop stop-color="#ffc200" offset=".481"/><stop stop-color="#f4ac00" offset=".725"/><stop stop-color="#d78b00" offset="1"/></linearGradient><linearGradient id="d" x1=".605" x2=".684" y1=".797" y2=".797"><stop stop-color="#b58b00" offset="0"/><stop stop-color="#e4af00" offset="1"/></linearGradient><linearGradient id="q" x1=".473" x2=".599" y1=".888" y2=".888"><stop stop-color="#581100" stop-opacity=".814" offset="0"/><stop stop-color="#d92c00" stop-opacity=".331" offset="1"/></linearGradient><linearGradient id="a"><stop stop-color="#ffe627" offset="0"/><stop stop-color="#ffc200" offset=".45"/><stop stop-color="#f4ac00" offset=".725"/><stop stop-color="#d78b00" offset="1"/></linearGradient><linearGradient id="h" x1=".738" x2=".48" y1=".065" y2=".065" gradientTransform="translate(0 73.469)" xlink:href="#a"/><linearGradient id="g" x1=".383" x2=".315" y1="-.031" y2="-.031" gradientTransform="translate(0 73.469)"><stop stop-color="#ffdc10" offset="0"/><stop stop-color="#f4b908" offset=".362"/><stop stop-color="#eea704" offset=".75"/><stop stop-color="#da9302" offset="1"/></linearGradient><filter id="e" x="-.041" y="-.313" width="1.081" height="1.626" color-interpolation-filters="sRGB"><feGaussianBlur stdDeviation="9.97"/></filter><filter id="k" color-interpolation-filters="sRGB"><feGaussianBlur stdDeviation="2.437"/></filter><filter id="m" color-interpolation-filters="sRGB"><feGaussianBlur stdDeviation="5.034"/></filter><filter id="i" color-interpolation-filters="sRGB"><feGaussianBlur stdDeviation="1.188"/></filter></defs><path d="M261.69 113.04s-17.299-6.363-38.391-1.271c-45.303 10.937-89.697 49.223-107.83 94.055-33.937 83.904 1.171 178.61 56.853 203.55 19.273 6.208 31.969-2.387 31.969-2.387s5.716 7.277 15.552 14.323c15.437 11.308 41.227 14.205 57.026 10.344 15.033 12.253 36.436 16.004 62.21 16.71 23.545.745 43.804-4.399 54.433-14.323 0 0 15.533 6.085 26.785 5.57 28.282-1.296 49.235-14.44 57.817-28.075 0 0 14.321 5.996 32.085-2.362 61.317-28.85 107-124.29 52.878-228.06-22.284-42.724-71.1-65.13-103.97-70.808-24.15-4.172-46.883-9.03-89.575 1.033-37.142-5.588-66.838-6.269-107.84 1.698z" fill="#ffac00" fill-opacity=".503" stroke="url(#d)" stroke-width="9.2"/><path d="M515.97 394.89a170.3 52.495 0 1 1-340.6 0" fill-opacity=".581" filter="url(#e)" opacity=".619"/><path d="M261.69 113.04s-17.299-6.363-38.391-1.271c-45.303 10.937-89.697 49.223-107.83 94.055-33.937 83.904 1.171 178.61 56.853 203.55 19.273 6.208 31.969-2.387 31.969-2.387s5.716 7.277 15.552 14.323c15.437 11.308 41.227 14.205 57.026 10.344 15.033 12.253 36.436 16.004 62.21 16.71 23.545.745 43.804-4.399 54.433-14.323 0 0 15.533 6.085 26.785 5.57 28.282-1.296 49.235-14.44 57.817-28.075 0 0 14.321 5.996 32.085-2.362 61.317-28.85 107-124.29 52.878-228.06-22.284-42.724-71.1-65.13-103.97-70.808-24.15-4.172-46.883-9.03-89.575 1.033-37.142-5.588-66.838-6.269-107.84 1.698z" fill="url(#f)"/><path d="M320.28 107.1c-18.212-.088-36.808 1.707-58.591 5.94 0 0-17.296-6.358-38.387-1.266-45.303 10.937-89.691 49.215-107.82 94.047-33.937 83.904 1.164 178.61 56.846 203.54 19.273 6.208 31.971-2.382 31.971-2.382s5.713 7.275 15.549 14.32c15.437 11.308 41.225 14.206 57.024 10.346 13.612 11.095 32.462 15.214 55.036 16.42v-340.66c-3.874-.185-7.74-.294-11.621-.313z" fill="url(#g)"/><path d="M370.7 114.69a175.46 175.46 0 0 0-16.115.7l-8.179 7.517s40.833 61.83 52.627 134.52c8.956 55.194-6.65 143.5-14.692 182.87 3.542-1.807 6.631-3.887 9.165-6.252 0 0 15.53 6.083 26.782 5.567 28.282-1.296 49.233-14.438 57.816-28.074l.13.045c19.183-47.387 41.926-110.4 38.451-153.29-12.885-109.16-83.406-143.35-145.98-143.6z" fill="url(#h)" filter="url(#i)"/><path d="M318.79 111.5c-6.77.092-22.273 7.22-22.273 7.22s-136.99-8.349-134.27 132.85c1.477 76.654 22.748 126.21 41.879 155.51l.162-.105s5.712 7.275 15.549 14.32c15.437 11.308 41.225 14.206 57.024 10.346 6.021 4.908 13.075 8.455 21.012 10.986-6.51-14.408-14.694-40.97-20.398-89.12-10.887-91.907 13.604-205.54 37.19-229.77 9.215-9.464 8.462-12.295 4.122-12.236z" fill="url(#j)" filter="url(#k)"/><path d="M332.14 108.11c-6.821.08-14.838 3.281-24.907 11.045-32.094 24.746-59.763 54.708-58.963 162.22.628 84.473 19.233 130.95 32.229 152.98 14.766 10.107 34.81 13.356 58.575 14.007 23.545.745 43.808-4.395 54.437-14.32l.194.074c9.262-25.58 25.723-84.948 20.269-173.36-6.058-98.197-50.758-131.98-61.953-142.98-5.948-5.842-12.15-9.766-19.881-9.675z" fill="url(#l)" filter="url(#m)"/><path d="M293.8 132.1s17.237-5.013 29.938-5.849c12.701-.835 28.124 3.342 34.474 4.178 6.35.836 9.98 2.506 9.98 2.506s-1.815-8.355 1.814-11.697c3.629-3.342 6.35-6.684 6.35-6.684s-41.732-8.355-32.66-44.282c4.526-17.922 19.052-35.092 19.052-35.092s-.509-7.429-5.443-8.355c-4.533-.85-13.608-2.506-13.608-2.506l-6.35 3.342s-22.407 30.363-28.124 59.322c-3.63 18.38-12.701 25.9-12.701 25.9l-24.495 6.685s14.516 1.67 18.144 5.013c3.629 3.342 3.629 7.52 3.629 7.52z" fill="url(#n)"/><path d="M343.5 28.614s-6.849 5.226-9.989 11.492c-4.987 9.952-16.198 25.642-17.86 47.842-1.582 21.124-14.302 36.607-21.853 44.046v.104s17.233-5.014 29.934-5.85c12.701-.835 28.125 3.347 34.476 4.183 5.137.676 8.377 1.85 9.472 2.292a591.559 591.559 0 0 1-15.048-13.397c-11.222-10.334-13.782-27.68-14.127-39.417-.416-14.162 15.792-37.505 18.7-40.95 2.91-3.444 2.086-8.425 2.086-8.425l-15.791-1.92z" fill="url(#o)"/><path d="m343.7 24.312-6.352 3.35s-.314.44-.469.654c.113.238.263.416.469.491 1.477.544 1.248 2.51 2.65 3.543 1.477 1.088 5.322-.553 8.276 1.623 2.954 2.176 10.926.55 10.926.55l3.491.73.065-.075s-.513-7.424-5.447-8.35c-4.533-.851-13.609-2.516-13.609-2.516z" fill="url(#p)"/><path d="m343.7 24.312-6.352 3.35s-22.407 30.36-28.124 59.318c-1.953 9.894-5.48 16.614-8.324 20.736-12.238.843-25.048 2.577-39.212 5.33 0 0-17.296-6.373-38.387-1.281-45.303 10.937-89.691 49.23-107.82 94.062-33.937 83.904 1.164 178.61 56.846 203.54 19.273 6.208 31.97-2.397 31.97-2.397s5.714 7.29 15.55 14.335c15.437 11.308 41.225 14.206 57.024 10.346 15.033 12.253 36.438 15.996 62.212 16.702 23.545.746 43.808-4.395 54.437-14.32 0 0 15.53 6.083 26.782 5.568 28.282-1.297 49.233-14.438 57.816-28.074 0 0 14.32 5.99 32.084-2.367 61.317-28.85 107-124.28 52.886-228.05-22.284-42.724-71.11-65.132-103.98-70.811-24.15-4.172-46.884-9.037-89.576 1.027-1.503-.226-2.966-.43-4.445-.64-11.63-5.312-27.297-17.014-21.384-40.43 4.526-17.921 19.056-35.084 19.056-35.084s-.513-7.425-5.447-8.351c-4.533-.85-13.609-2.516-13.609-2.516z" fill="url(#q)" opacity=".412"/><path d="M352.62 338.85h85.263l66.916-16.183 12.951-22.657 10.793-50.708-11.872-36.682 19.427-14.025 18.348 31.288 1.08 57.18-30.22 65.812-52.885 23.736-142.47 30.209-89.58-17.262-56.123-52.865-22.665-59.339 10.793-64.734 46.409-39.918 12.95 18.341-34.536 34.524-2.159 50.708 20.506 38.84 77.708 24.814 59.36-1.079z"/><path d="M280.31 284.91s0-42.077 4.317-85.232c4.317-43.156 46.41-52.865 48.567-4.316 2.159 48.55 6.476 111.12 6.476 111.12l-59.36-21.578zM454.07 287.34s0-43.658-4.945-88.435-53.16-54.852-55.632-4.478c-2.473 50.374-7.418 115.3-7.418 115.3l67.995-22.388z"/><path d="M414.43 184.34c-6.53-.01-14.783 2.682-20.498 4.904a71.783 71.783 0 0 0-.43 5.19c-2.472 50.374-7.422 115.3-7.422 115.3l47.701-15.714.86-23.133s-5.386-70.126-10.782-81.994c-1.518-3.338-5.086-4.547-9.429-4.553zm-105.82.51c-3.928-.026-6.894 1.485-7.804 5.126-2.81 11.238-5.614 81.664-6.307 100.1l45.169 16.415s-4.242-61.434-6.419-109.79c-7.053-6.628-17.46-11.798-24.639-11.845zm-93.061 4.044-28.063 29.136-9.715 46.378 21.597 65.818 43.162 22.656 8.632 9.711 16.198-4.314 82.024 12.944 77.708-11.861 77.708-17.258 32.38-59.354 7.55-35.6-11.867-29.12-13.984-6.99-2.214 1.593 11.882 36.682-10.798 50.709L504.8 322.68l-66.909 16.176h-85.273l-59.36 1.082-77.708-24.82-20.498-38.833 2.15-50.709 34.068-34.07-15.72-2.612z"/></svg>