<?xml version='1.0' encoding='utf-8'?>
<svg xmlns="http://www.w3.org/2000/svg" xmlns:xlink="http://www.w3.org/1999/xlink" viewBox="0 0 640 480">
 <defs>
  <filter id="w" x="-.040739" y="-.31285" width="1.0815" height="1.6257" color-interpolation-filters="sRGB">
   <feGaussianBlur stdDeviation="9.969602"/>
  </filter>
  <filter id="z" color-interpolation-filters="sRGB">
   <feGaussianBlur stdDeviation="2.436623"/>
  </filter>
  <filter id="x" color-interpolation-filters="sRGB">
   <feGaussianBlur stdDeviation="5.033815"/>
  </filter>
  <filter id="y" color-interpolation-filters="sRGB">
   <feGaussianBlur stdDeviation="1.187731"/>
  </filter>
  <linearGradient id="af" x1=".83546" x2=".4391" y1=".11375" y2=".11375" gradientTransform="translate(0 73.469)" xlink:href="#u"/>
  <linearGradient id="ah" x1=".42609" x2=".76911" y1=".30744" y2=".30744" gradientTransform="translate(0 21.107)" xlink:href="#t"/>
  <linearGradient id="aa" y1=".46215" y2=".46215">
   <stop stop-color="#cfe96d" offset="0"/>
   <stop stop-color="#dfff57" offset="1"/>
  </linearGradient>
  <linearGradient id="v">
   <stop stop-color="#f7ff70" offset="0"/>
   <stop stop-color="#ffe900" offset="1"/>
  </linearGradient>
  <linearGradient id="t">
   <stop stop-color="#398c24" offset="0"/>
   <stop stop-color="#63c44b" offset="1"/>
  </linearGradient>
  <linearGradient id="ag" x1=".22261" x2=".51068" y1=".97615" y2=".97615" xlink:href="#t"/>
  <linearGradient id="ac" x1=".48611" x2=".44444" y1=".008886" y2=".008886" gradientTransform="translate(0 73.469)">
   <stop stop-color="#ffdc10" offset="0"/>
   <stop stop-color="#f4b908" offset=".39532"/>
   <stop stop-color="#eea704" offset=".75"/>
   <stop stop-color="#c68000" offset="1"/>
  </linearGradient>
  <linearGradient id="ae" x1=".86456" x2=".80082" y1=".21662" y2=".21662" gradientTransform="translate(0 21.107)">
   <stop stop-color="#ffe627" offset="0"/>
   <stop stop-color="#ffc200" offset=".48058"/>
   <stop stop-color="#f4ac00" offset=".72481"/>
   <stop stop-color="#d78b00" offset="1"/>
  </linearGradient>
  <linearGradient id="ai" x1=".60454" x2=".68366" y1=".79692" y2=".79692">
   <stop stop-color="#b58b00" offset="0"/>
   <stop stop-color="#e4af00" offset="1"/>
  </linearGradient>
  <linearGradient id="aj" x1=".47254" x2=".59945" y1=".88826" y2=".88826">
   <stop stop-color="#581100" stop-opacity=".814" offset="0"/>
   <stop stop-color="#d92c00" stop-opacity=".331" offset="1"/>
  </linearGradient>
  <linearGradient id="u">
   <stop stop-color="#ffe627" offset="0"/>
   <stop stop-color="#ffc200" offset=".44962"/>
   <stop stop-color="#f4ac00" offset=".72481"/>
   <stop stop-color="#d78b00" offset="1"/>
  </linearGradient>
  <linearGradient id="ab" x1=".73752" x2=".48038" y1=".064709" y2=".064709" gradientTransform="translate(0 73.469)" xlink:href="#u"/>
  <linearGradient id="ad" x1=".38263" x2=".31464" y1="-.030753" y2="-.030753" gradientTransform="translate(0 73.469)">
   <stop stop-color="#ffdc10" offset="0"/>
   <stop stop-color="#f4b908" offset=".36213"/>
   <stop stop-color="#eea704" offset=".75"/>
   <stop stop-color="#da9302" offset="1"/>
  </linearGradient>
  <radialGradient id="ak" cx="508.81" cy="558.39" r="344.84" gradientTransform="matrix(1 0 0 .61092 0 217.26)" gradientUnits="userSpaceOnUse" xlink:href="#v"/>
  <radialGradient id="al" cx="498.59" cy="734.28" r="327.69" gradientTransform="matrix(.95314 .30254 -.56584 1.7826 438.85 -775.89)" gradientUnits="userSpaceOnUse" xlink:href="#v"/>
 </defs>
 <path d="m261.69 113.04s-17.299-6.3633-38.391-1.2713c-45.303 10.937-89.697 49.223-107.83 94.055-33.937 83.904 1.1714 178.61 56.853 203.55 19.273 6.2082 31.969-2.3872 31.969-2.3872s5.7162 7.2774 15.552 14.323c15.437 11.308 41.227 14.205 57.026 10.344 15.033 12.253 36.436 16.004 62.21 16.71 23.545 0.74524 43.804-4.3984 54.433-14.323 0 0 15.533 6.0857 26.785 5.5701 28.282-1.2961 49.235-14.439 57.817-28.075 0 0 14.321 5.9964 32.085-2.3614 61.317-28.85 107-124.29 52.878-228.06-22.284-42.724-71.1-65.13-103.97-70.808-24.15-4.1719-46.883-9.0305-89.575 1.033-37.142-5.5883-66.838-6.269-107.84 1.6982z" fill="#ffac00" fill-opacity=".503" stroke="url(#ai)" stroke-width="9.2"/>
 <path d="m515.97 394.89a170.3 52.495 0 1 1 -340.6 0" fill-opacity=".581" filter="url(#w)" opacity=".619"/>
 <path d="m261.69 113.04s-17.299-6.3633-38.391-1.2713c-45.303 10.937-89.697 49.223-107.83 94.055-33.937 83.904 1.1714 178.61 56.853 203.55 19.273 6.2082 31.969-2.3872 31.969-2.3872s5.7162 7.2774 15.552 14.323c15.437 11.308 41.227 14.205 57.026 10.344 15.033 12.253 36.436 16.004 62.21 16.71 23.545 0.74524 43.804-4.3984 54.433-14.323 0 0 15.533 6.0857 26.785 5.5701 28.282-1.2961 49.235-14.439 57.817-28.075 0 0 14.321 5.9964 32.085-2.3614 61.317-28.85 107-124.29 52.878-228.06-22.284-42.724-71.1-65.13-103.97-70.808-24.15-4.1719-46.883-9.0305-89.575 1.033-37.142-5.5883-66.838-6.269-107.84 1.6982z" fill="url(#ae)"/>
 <path d="m320.28 107.1c-18.212-0.087982-36.808 1.7068-58.591 5.9393 0 0-17.296-6.3572-38.387-1.2653-45.303 10.937-89.691 49.215-107.82 94.047-33.937 83.904 1.1644 178.61 56.846 203.54 19.273 6.2082 31.971-2.3816 31.971-2.3816s5.7127 7.2742 15.549 14.32c15.437 11.308 41.225 14.206 57.024 10.346 13.612 11.095 32.462 15.214 55.036 16.419v-340.66c-3.8742-0.18408-7.7399-0.29382-11.621-0.31259z" fill="url(#ad)"/>
 <path d="m370.7 114.69c-5.3033-0.02179-10.673 0.2204-16.115 0.69962l-8.1786 7.5172s40.833 61.831 52.627 134.52c8.9552 55.194-6.6502 143.5-14.692 182.87 3.5418-1.8073 6.6311-3.8864 9.1645-6.2519 0 0 15.531 6.0828 26.782 5.5672 28.282-1.2961 49.233-14.438 57.816-28.074 0 0 0.11191 0.037537 0.12933 0.044617 19.184-47.387 41.927-110.4 38.452-153.29-12.885-109.16-83.406-143.35-145.98-143.6z" fill="url(#ab)" filter="url(#y)"/>
 <path d="m318.79 111.5c-6.7693 0.092102-22.273 7.2195-22.273 7.2195s-136.99-8.3484-134.27 132.85c1.4775 76.654 22.748 126.21 41.879 155.51 0.031265-0.020386 0.16162-0.10419 0.16162-0.10419s5.7127 7.2742 15.549 14.32c15.437 11.308 41.225 14.206 57.024 10.346 6.0218 4.9081 13.075 8.455 21.012 10.986-6.509-14.408-14.694-40.971-20.398-89.12-10.887-91.907 13.604-205.54 37.191-229.77 9.214-9.4648 8.4609-12.295 4.1216-12.236z" fill="url(#ac)" filter="url(#z)"/>
 <path d="m332.14 108.11c-6.8211 0.08017-14.838 3.2811-24.907 11.045-32.094 24.746-59.763 54.708-58.963 162.22 0.62824 84.473 19.233 130.95 32.229 152.98 14.766 10.107 34.81 13.356 58.575 14.007 23.545 0.7453 43.808-4.3952 54.437-14.32 0 0 0.15491 0.059326 0.19397 0.074402 9.2624-25.58 25.723-84.948 20.269-173.36-6.0582-98.197-50.758-131.98-61.953-142.98-5.9477-5.8427-12.15-9.7665-19.881-9.6756z" fill="url(#af)" filter="url(#x)"/>
 <path d="m293.8 132.1s17.237-5.0131 29.938-5.8486c12.701-0.83551 28.124 3.342 34.474 4.1776 6.3506 0.83551 9.9795 2.5065 9.9795 2.5065s-1.8144-8.3551 1.8144-11.697c3.6289-3.342 6.3506-6.6841 6.3506-6.6841s-41.732-8.3552-32.66-44.282c4.5257-17.922 19.052-35.092 19.052-35.092s-0.50903-7.4289-5.4433-8.3551c-4.5328-0.85089-13.608-2.5066-13.608-2.5066l-6.3505 3.3421s-22.407 30.363-28.124 59.322c-3.6289 18.381-12.701 25.901-12.701 25.901l-24.495 6.6841s14.516 1.671 18.144 5.0131c3.6289 3.3421 3.6289 7.5196 3.6289 7.5196z" fill="url(#ah)"/>
 <path d="m343.5 28.614s-6.849 5.2265-9.9889 11.492c-4.9873 9.9518-16.198 25.642-17.86 47.842-1.5819 21.124-14.302 36.607-21.853 44.046 0.001038 0.036285 0 0.10419 0 0.10419s17.233-5.0145 29.934-5.85c12.701-0.83551 28.125 3.3473 34.476 4.1828 5.137 0.67587 8.3765 1.8498 9.4716 2.2924-3.5082-3.0182-8.707-7.5573-15.048-13.397-11.222-10.334-13.782-27.68-14.127-39.417-0.41559-14.162 15.792-37.505 18.701-40.95 2.9093-3.4448 2.085-8.4252 2.085-8.4252l-15.791-1.9202z" fill="url(#ag)"/>
 <path d="m343.7 24.312l-6.3521 3.3492s-0.31372 0.44022-0.46878 0.65497c0.11295 0.23749 0.26328 0.4155 0.46878 0.49121 1.4768 0.54404 1.2477 2.5091 2.6507 3.5428 1.4768 1.0881 5.3219-0.55362 8.2755 1.6225 2.9537 2.1762 10.926 0.55078 10.926 0.55078l3.4912 0.7294c0.00412-0.005157 0.064636-0.074402 0.064636-0.074402s-0.5127-7.4246-5.4469-8.3508c-4.5328-0.85089-13.609-2.5157-13.609-2.5157z" fill="url(#aa)"/>
 <path d="m343.7 24.312l-6.3521 3.3492s-22.407 30.36-28.124 59.319c-1.9533 9.8943-5.4802 16.614-8.324 20.736-12.238 0.8425-25.048 2.5769-39.212 5.329 0 0-17.296-6.3721-38.387-1.2802-45.303 10.937-89.691 49.23-107.82 94.062-33.937 83.904 1.1644 178.61 56.846 203.54 19.273 6.2082 31.971-2.3966 31.971-2.3966s5.7127 7.2891 15.549 14.335c15.437 11.308 41.225 14.206 57.024 10.346 15.033 12.253 36.438 15.996 62.212 16.702 23.545 0.7453 43.808-4.3951 54.437-14.32 0 0 15.531 6.0828 26.782 5.5672 28.282-1.2961 49.233-14.438 57.816-28.074 0 0 14.32 5.9911 32.084-2.3668 61.317-28.85 107-124.28 52.886-228.05-22.284-42.724-71.109-65.132-103.98-70.811-24.15-4.172-46.884-9.0365-89.576 1.0271-1.5024-0.22604-2.9657-0.43033-4.4449-0.64008-11.63-5.3117-27.297-17.014-21.384-40.429 4.5257-17.922 19.056-35.085 19.056-35.085s-0.5127-7.4246-5.4469-8.3508c-4.5328-0.85089-13.609-2.5157-13.609-2.5157z" fill="url(#aj)" opacity=".412"/>
 <path d="m352.62 338.85h85.263l66.916-16.183 12.951-22.657 10.793-50.708-11.872-36.682 19.427-14.025 18.348 31.288 1.0795 57.18-30.22 65.812-52.885 23.736-142.47 30.209-89.58-17.262-56.123-52.865-22.665-59.339 10.793-64.734 46.409-39.918 12.951 18.341-34.537 34.524-2.1584 50.708 20.506 38.84 77.708 24.814 59.36-1.079z"/>
 <path d="m280.31 284.91s0-42.077 4.3173-85.232c4.3169-43.156 46.409-52.865 48.567-4.3158 2.1584 48.55 6.4758 111.12 6.4758 111.12l-59.36-21.578z"/>
 <path d="m454.07 287.34s0-43.658-4.9452-88.435c-4.9448-44.777-53.159-54.852-55.632-4.4778-2.4729 50.374-7.4177 115.3-7.4177 115.3l67.995-22.388z"/>
 <path d="m414.43 184.34c-6.5297-0.010254-14.783 2.6817-20.498 4.9037-0.20227 1.6528-0.34131 3.3832-0.42999 5.1903-2.4725 50.374-7.422 115.3-7.422 115.3l47.701-15.714 0.86-23.133s-5.3861-70.126-10.782-81.994c-1.5178-3.3378-5.0858-4.5466-9.4288-4.5534zm-105.82 0.5095c-3.928-0.025757-6.8936 1.4854-7.8042 5.1266-2.8106 11.238-5.6143 81.664-6.3071 100.1l45.169 16.415s-4.2415-61.434-6.4186-109.79c-7.0526-6.6284-17.46-11.798-24.639-11.845zm-93.061 4.044l-28.063 29.136-9.7155 46.378 21.597 65.818 43.162 22.656 8.6324 9.7119 16.198-4.3146 82.024 12.944 77.708-11.861 77.708-17.258 32.38-59.354 7.5494-35.6-11.866-29.12-13.984-6.9894-2.2139 1.5921 11.882 36.682-10.798 50.709-12.949 22.656-66.909 16.176h-85.273l-59.36 1.0826-77.708-24.821-20.498-38.832 2.1501-50.709 34.068-34.071-15.72-2.6111z"/>
</svg>